<svg id="Capa_10" data-name="Capa 10" xmlns="http://www.w3.org/2000/svg" viewBox="0 0 132 180"><defs><style>.cls-1{fill:none;}.cls-1,.cls-2{stroke:#000;stroke-miterlimit:10;stroke-width:4px;}</style></defs><title>ic_file</title><path class="cls-1" d="M160,19.33V172.67A11.33,11.33,0,0,1,148.67,184H43.33A11.33,11.33,0,0,1,32,172.67v-104A0.67,0.67,0,0,1,32.67,68h52.5A10.83,10.83,0,0,0,96,57.17V8.67A0.67,0.67,0,0,1,96.67,8h52A11.33,11.33,0,0,1,160,19.33Z" transform="translate(-30 -6)"/><rect x="23.33" y="85" width="85.33" height="6.33"/><rect x="23.33" y="139.67" width="85.33" height="6.33"/><rect x="23.33" y="99.49" width="72" height="5.34"/><rect x="23.33" y="112.43" width="82.67" height="6.14"/><rect x="23.33" y="126.33" width="85.33" height="6.33"/><path class="cls-1" d="M32.67,68" transform="translate(-30 -6)"/><path class="cls-1" d="M96.67,8" transform="translate(-30 -6)"/><path class="cls-2" d="M133,38" transform="translate(-30 -6)"/><path class="cls-1" d="M96.67,8V55a13,13,0,0,1-13,13H32" transform="translate(-30 -6)"/><path class="cls-2" d="M83.21,68H34.55c-1.4,0-1.71-.78-0.68-1.73L64.33,38,95,9.56c0.92-.86,1.68-0.53,1.68.73V54.54A13.46,13.46,0,0,1,83.21,68Z" transform="translate(-30 -6)"/></svg>