<svg id="Capa_1" data-name="Capa 1" xmlns="http://www.w3.org/2000/svg" viewBox="0 0 250.62 390.19"><defs><style>.cls-1{fill:#0E609C;stroke:#0E609C;stroke-miterlimit:10;}</style></defs><title>login</title><path class="cls-1" d="M353.33,257.33S407.33,166,342,164s-175.33,39.33-193.33,56S113.33,262,172,300.67H124.67v70H227.33s-34,55.33-48,73.33c0,0,48-16.67,143.34-140l-15.34-21.33L310,200l-16.67-9.33L300,168l22.67,10-5.34,20.67ZM232.67,358.67v-58h-38C149.33,244.67,250,222,250,222,280.67,269.33,232.67,358.67,232.67,358.67Z" transform="translate(-124.17 -54.83)"/><circle class="cls-1" cx="154.16" cy="52.5" r="52"/></svg>